# xmcd
#
# Track frame offsets:
#	150
#	8427
#	20185
#	30107
#	39495
#	48165
#	56377
#	64137
#	69787
#	78370
#	86432
#	95920
#	105530
#	115007
#	124065
#	136010
#	149162
#	158525
#	168247
#	175830
#	184975
#	196087
#	208775
#	218692
#	228440
#	237647
#	244990
#	253955
#
# Disc length: 3488 seconds
#
# Revision: 1
# Processed by: cddbd v1.5.2PL0 Copyright (c) Steve Scherf et al.
# Submitted via: audiograbber 1.83.01
#
DISCID=7a0d9e1c
DTITLE=Canyon's country bands - Life in the country
DYEAR=1900
DGENRE=Country
TTITLE0=Country stomp
TTITLE1=My breakin'heart
TTITLE2=Back on the road
TTITLE3=meadowlark
TTITLE4=Rattletrap
TTITLE5=Freight train
TTITLE6=Apple jack
TTITLE7=Kentucky bluegrass
TTITLE8=Back roads
TTITLE9=Back roads (underscore)
TTITLE10=Hyghway 99
TTITLE11=Flatbed ford
TTITLE12=Sagebrush
TTITLE13=Backwoods ramble
TTITLE14=Harmonica man
TTITLE15=Cold mountain morning
TTITLE16=Ridin'high
TTITLE17=Strawberry shuffle
TTITLE18=Hayseed
TTITLE19=Man from Cheyenne
TTITLE20=Lonesome road
TTITLE21=River city
TTITLE22=Blue valley junction
TTITLE23=No tangents
TTITLE24=Moonshine wiskey
TTITLE25=Fish aint bitin'
TTITLE26=One of those days
TTITLE27=Hot saturday night
EXTD=
EXTT0=
EXTT1=
EXTT2=
EXTT3=
EXTT4=
EXTT5=
EXTT6=
EXTT7=
EXTT8=
EXTT9=
EXTT10=
EXTT11=
EXTT12=
EXTT13=
EXTT14=
EXTT15=
EXTT16=
EXTT17=
EXTT18=
EXTT19=
EXTT20=
EXTT21=
EXTT22=
EXTT23=
EXTT24=
EXTT25=
EXTT26=
EXTT27=
PLAYORDER=
